<?xml version="1.0" encoding="UTF-8" standalone="no"?>
<svg width="400" height="200" viewBox="0 0 400 200" fill="none" xmlns="http://www.w3.org/2000/svg">
  <!-- 背景 -->
  <rect width="400" height="200" rx="10" fill="#f8f9fa"/>
  
  <!-- 商店建築群 -->
  <rect x="50" y="80" width="70" height="70" rx="3" fill="#4a90e2" opacity="0.8"/>
  <rect x="130" y="90" width="70" height="60" rx="3" fill="#ff5722" opacity="0.7"/>
  <rect x="210" y="70" width="70" height="80" rx="3" fill="#4a90e2" opacity="0.8"/>
  
  <!-- 建築細節 -->
  <rect x="60" y="100" width="20" height="30" fill="#fff"/>
  <rect x="90" y="100" width="20" height="30" fill="#fff"/>
  <rect x="140" y="110" width="20" height="30" fill="#fff"/>
  <rect x="170" y="110" width="20" height="30" fill="#fff"/>
  <rect x="220" y="90" width="20" height="30" fill="#fff"/>
  <rect x="250" y="90" width="20" height="30" fill="#fff"/>
  
  <!-- 註冊圖標 -->
  <circle cx="320" cy="70" r="30" fill="#ff5722"/>
  <path d="M310 70 L330 70 M320 60 L320 80" stroke="white" stroke-width="5"/>
  
  <!-- 文件圖標 -->
  <rect x="300" y="120" width="40" height="50" rx="3" fill="#4a90e2"/>
  <path d="M310 135 L330 135 M310 150 L330 150 M310 165 L330 165" stroke="white" stroke-width="2"/>
  
  <!-- 文字 -->
  <text x="200" y="180" font-family="Arial, sans-serif" font-weight="bold" font-size="18" fill="#333" text-anchor="middle">NCCU 商家註冊系統</text>
</svg>
