<?xml version="1.0" encoding="UTF-8" standalone="no"?>
<svg width="400" height="200" viewBox="0 0 400 200" fill="none" xmlns="http://www.w3.org/2000/svg">
  <!-- 背景 -->
  <rect width="400" height="200" rx="10" fill="#f8f9fa"/>
  
  <!-- 餐廳建築 -->
  <rect x="80" y="70" width="120" height="80" rx="5" fill="#ff5722" opacity="0.8"/>
  <rect x="90" y="100" width="30" height="50" fill="#fff"/>
  <rect x="140" y="100" width="30" height="50" fill="#fff"/>
  <path d="M80 70 L140 30 L200 70 L80 70" fill="#ff5722" opacity="0.9"/>
  
  <!-- 餐飲圖標 -->
  <circle cx="280" cy="70" r="35" fill="#4a90e2"/>
  <path d="M260 70 C260 60, 280 50, 300 70" stroke="white" stroke-width="4" fill="none"/>
  <path d="M270 80 L290 80" stroke="white" stroke-width="4"/>
  <circle cx="280" cy="60" r="5" fill="white"/>
  
  <!-- 餐盤和食物 -->
  <circle cx="280" cy="120" r="25" fill="#ff5722" opacity="0.7"/>
  <circle cx="280" cy="120" r="20" fill="#fff"/>
  <path d="M270 115 L290 115 M275 125 L285 125" stroke="#ff5722" stroke-width="3"/>
  
  <!-- 文字 -->
  <text x="200" y="180" font-family="Arial, sans-serif" font-weight="bold" font-size="18" fill="#333" text-anchor="middle">NCCU 商家管理系統</text>
</svg>
